<svg xmlns="http://www.w3.org/2000/svg" width="28.912" height="27" viewBox="0 0 28.912 27">
  <g id="Group_3794" data-name="Group 3794" transform="translate(-4258.37 -3580.95)">
    <g id="Group_3793" data-name="Group 3793" transform="translate(4258.37 3580.95)">
      <path id="Polygon_1" data-name="Polygon 1" d="M19.5,2.81a3.562,3.562,0,0,1,4.642,0l11.112,9.836A2.886,2.886,0,0,1,36.038,16a3.355,3.355,0,0,1-3.1,1.916H10.716A3.355,3.355,0,0,1,7.613,16a2.886,2.886,0,0,1,.779-3.355Z" transform="translate(-7.37 -1.95)" fill="#868d9a"/>
      <path id="Exclusion_1" data-name="Exclusion 1" d="M21.064,12.259H3.4A3.248,3.248,0,0,1,0,9.194V0H24.462V9.194a3.248,3.248,0,0,1-3.4,3.065ZM10.192,2.452A1.3,1.3,0,0,0,8.833,3.678V9.807a1.3,1.3,0,0,0,1.359,1.226h4.077a1.3,1.3,0,0,0,1.359-1.226V3.678a1.3,1.3,0,0,0-1.359-1.226Z" transform="translate(2.225 14.741)" fill="#868d9a"/>
    </g>
  </g>
</svg>
